<!--при управлением свойствами stroke в css файле из svg файла stroke нужно удалять!  -->


<svg width="30px" height="30px" viewBox="0 0 24 24" fill="none" xmlns="http://www.w3.org/2000/svg">
<g id="snow">
<path d="M12 3V21M16 4L12 8L8.00878 4M8.00878 20L12 16L16 20M3 12H21M4 8L8.00878 12L4 16M20 16L16 12L20 8"  stroke-width="2" stroke-linecap="round" stroke-linejoin="round"/>
</g>

<g id="droplet">
<path d="M19 13.8C19 17.7764 15.866 21 12 21C8.13401 21 5 17.7764 5 13.8C5 12.8452 5.18069 11.9338 5.50883 11.1C6.54726 8.46135 12 3 12 3C12 3 17.4527 8.46135 18.4912 11.1C18.8193 11.9338 19 12.8452 19 13.8Z" stroke-width="2" stroke-linecap="round" stroke-linejoin="round"/>
</g>

<g id="cloud">
<path d="M16 13V20M4 14.7519C3.37037 13.8768 3 12.8059 3 11.6493C3 9.20008 4.8 6.9375 7.5 6.5C8.34694 4.48637 10.3514 3 12.6893 3C15.684 3 18.1317 5.32251 18.3 8.25C19.8893 8.94488 21 10.6503 21 12.4969C21 13.4232 20.7205 14.2842 20.2413 15M12 14V21M8 13V20"  stroke-width="2" stroke-linecap="round" stroke-linejoin="round"/>
</g>


<g id="css">
<path d="M6 28L4 3H28L26 28L16 31L6 28Z" fill="#1172B8"/>
<path d="M26 5H16V29.5L24 27L26 5Z" fill="#33AADD"/>
<path d="M19.5 17.5H9.5L9 14L17 11.5H9L8.5 8.5H24L23.5 12L17 14.5H23L22 24L16 26L10 24L9.5 19H12.5L13 21.5L16 22.5L19 21.5L19.5 17.5Z" fill="white"/>
</g>

<g id="html">
<path d="M6 28L4 3H28L26 28L16 31L6 28Z" fill="#E44D26"/>
<path d="M26 5H16V29.5L24 27L26 5Z" fill="#F16529"/>
<path d="M9.5 17.5L8.5 8H24L23.5 11H11.5L12 14.5H23L22 24L16 26L10 24L9.5 19H12.5L13 21.5L16 22.5L19 21.5L19.5 17.5H9.5Z" fill="white"/>
</g>

<g id="js">
<rect x="2" y="2" width="28" height="28" fill="#FFCA28"/>
<path d="M19 25.2879L21.0615 23.9237C21.2231 24.4313 22.2462 25.6368 23.5385 25.6368C24.8308 25.6368 25.4308 24.931 25.4308 24.463C25.4308 23.1878 24.1112 22.7382 23.4774 22.5223C23.374 22.4871 23.289 22.4581 23.2308 22.4328C23.2009 22.4198 23.1558 22.4025 23.0979 22.3804C22.393 22.1111 19.7923 21.1175 19.7923 18.2373C19.7923 15.065 22.8538 14.7002 23.5462 14.7002C23.9991 14.7002 26.1769 14.7557 27.2615 16.7939L25.2615 18.1898C24.8231 17.3015 24.0946 17.0081 23.6462 17.0081C22.5385 17.0081 22.3077 17.8201 22.3077 18.1898C22.3077 19.227 23.5112 19.6919 24.5273 20.0844C24.7932 20.1871 25.0462 20.2848 25.2615 20.3866C26.3692 20.91 28 21.7666 28 24.463C28 25.8136 26.8672 28.0002 24.0154 28.0002C20.1846 28.0002 19.1692 25.7003 19 25.2879Z" fill="#3E3E3E"/>
<path d="M9 25.5587L11.1487 24.1953C11.317 24.7026 11.9713 25.638 12.9205 25.638C13.8698 25.638 14.3557 24.663 14.3557 24.1953V15.0002H16.9982V24.1953C17.041 25.4636 16.3376 28.0002 13.2332 28.0002C10.379 28.0002 9.19242 26.3039 9 25.5587Z" fill="#3E3E3E"/>
</g>
</svg>